<?xml version="1.0" standalone="no"?>
<!DOCTYPE svg PUBLIC "-//W3C//DTD SVG 20010904//EN"
 "http://www.w3.org/TR/2001/REC-SVG-20010904/DTD/svg10.dtd">
<svg version="1.0" xmlns="http://www.w3.org/2000/svg"
 width="2167.000000pt" height="2167.000000pt" viewBox="0 0 2167.000000 2167.000000"
 preserveAspectRatio="xMidYMid meet">
<metadata>
Created by potrace 1.14, written by Peter Selinger 2001-2017
</metadata>
<g transform="translate(0.000000,2167.000000) scale(0.100000,-0.100000)"
fill="#000000" stroke="none">
<path d="M12318 21524 c-16 -26 -33 -243 -32 -409 1 -358 73 -672 228 -1000
205 -431 574 -818 996 -1043 128 -69 231 -112 447 -188 702 -247 1457 -629
2043 -1032 510 -352 873 -653 1306 -1086 740 -741 1330 -1580 1769 -2516 864
-1844 1071 -3959 580 -5940 -312 -1259 -879 -2404 -1700 -3435 -102 -129 -145
-179 -348 -410 -124 -140 -556 -565 -730 -717 -322 -281 -644 -527 -977 -746
-96 -63 -187 -123 -202 -133 -24 -17 -48 -25 -48 -16 0 2 67 70 148 152 190
192 303 317 435 483 582 728 896 1490 989 2402 17 164 17 704 0 885 -177 1908
-1278 4150 -3562 7250 -353 479 -525 733 -744 1098 -690 1151 -1067 2219
-1193 3377 -22 207 -26 923 -5 1115 40 371 95 674 178 974 6 21 -1 18 -68 -27
-394 -266 -821 -703 -1141 -1168 -302 -438 -574 -1036 -696 -1529 -116 -470
-168 -874 -178 -1390 -6 -341 4 -569 37 -875 163 -1492 803 -3071 1937 -4778
271 -407 410 -599 1014 -1397 699 -925 1234 -1846 1574 -2715 150 -384 218
-631 265 -969 79 -562 22 -1145 -165 -1691 -290 -846 -867 -1556 -1640 -2017
-413 -245 -874 -404 -1376 -473 -369 -51 -1078 -32 -1654 44 -1767 235 -3381
967 -4725 2142 -182 159 -657 635 -816 818 -1561 1794 -2336 4073 -2193 6446
100 1671 673 3284 1652 4649 284 397 576 740 942 1107 1248 1254 2827 2102
4557 2450 l187 37 80 161 c191 383 437 770 695 1091 83 103 93 120 75 123 -29
5 -359 -25 -594 -54 -2578 -316 -4946 -1613 -6628 -3632 -1243 -1492 -2039
-3323 -2286 -5257 -88 -693 -104 -1468 -45 -2165 134 -1579 626 -3085 1457
-4457 47 -79 95 -155 105 -170 11 -16 62 -93 114 -173 481 -733 1129 -1471
1828 -2081 1123 -979 2465 -1712 3886 -2122 742 -214 1456 -336 2274 -388 220
-14 796 -17 1035 -6 1719 81 3351 572 4815 1447 522 312 1186 803 1590 1175
30 27 84 77 119 110 190 174 392 380 661 670 133 144 413 486 581 710 1008
1345 1670 2921 1923 4575 91 598 121 1048 113 1710 -6 446 -17 651 -57 1012
-281 2542 -1510 4889 -3448 6585 -1109 971 -2436 1702 -3832 2113 -96 28 -227
66 -292 85 -558 164 -1019 590 -1222 1130 -18 48 -35 84 -38 79z"/>
<path d="M7949 17122 c-543 -600 -1130 -1360 -1640 -2122 -830 -1239 -1454
-2478 -1826 -3625 -89 -277 -96 -299 -147 -485 -169 -625 -264 -1190 -296
-1765 -13 -235 -5 -714 14 -925 40 -419 125 -869 227 -1190 37 -115 87 -264
97 -290 6 -14 32 -79 57 -145 46 -117 60 -151 112 -265 44 -97 159 -322 218
-425 32 -55 63 -109 69 -120 26 -46 28 -48 38 -34 5 9 6 4 2 -13 -5 -22 -3
-28 11 -28 9 0 15 -6 12 -12 -2 -7 6 -26 18 -43 12 -16 24 -34 26 -40 10 -25
103 -155 110 -155 5 0 9 -6 9 -14 0 -15 39 -66 40 -52 0 5 -8 18 -17 28 -15
17 -15 18 -1 13 15 -6 44 -65 32 -65 -7 0 57 -85 64 -85 4 0 13 -4 19 -8 10
-6 11 0 7 23 -4 18 -2 30 4 30 15 0 20 -41 8 -62 -9 -15 -11 -15 -23 0 -7 9
-13 12 -13 6 0 -6 9 -19 20 -29 19 -17 20 -17 20 -1 0 9 5 14 10 11 6 -3 8
-16 4 -29 -4 -16 3 -32 25 -55 17 -18 31 -36 31 -39 0 -3 16 -24 35 -48 30
-36 40 -42 65 -39 20 3 33 -1 40 -13 9 -15 10 -15 16 5 3 13 10 23 14 23 13 0
6 -34 -10 -48 -8 -7 -10 -11 -5 -10 15 4 56 -28 47 -37 -4 -4 0 -6 8 -3 8 3
20 -2 25 -9 7 -10 20 -12 38 -8 33 9 26 25 -10 25 -25 0 -25 1 -9 18 15 18 14
19 -24 32 -47 15 -50 25 -12 35 15 3 42 20 60 38 26 25 32 39 32 72 0 34 6 47
35 75 31 30 41 34 80 31 27 -1 45 2 45 8 0 7 -29 11 -77 11 l-78 0 32 32 c28
28 38 32 78 29 27 -1 45 2 45 8 0 6 -18 11 -40 11 -33 0 -40 3 -40 20 0 17 7
20 40 20 33 0 40 3 40 20 0 16 -7 20 -37 20 l-37 0 39 40 39 40 -39 0 -39 0
37 38 c30 31 37 45 37 78 0 33 6 46 35 74 31 30 41 34 80 31 27 -1 45 2 45 8
0 7 -29 11 -77 11 l-78 0 32 32 c28 28 38 32 78 29 27 -1 45 2 45 8 0 6 -18
11 -40 11 -33 0 -40 3 -40 20 0 17 7 20 40 20 33 0 40 3 40 20 0 16 -7 20 -37
20 l-37 0 37 38 c37 37 37 39 37 120 l0 82 40 0 c33 0 40 3 40 20 0 17 7 20
40 20 33 0 40 3 40 20 0 16 -7 20 -37 20 l-37 0 39 40 39 40 -39 0 -39 0 37
38 c30 31 37 45 37 78 0 33 6 46 35 74 31 30 41 34 80 31 27 -1 45 2 45 8 0 6
-18 11 -40 11 -33 0 -40 3 -40 20 0 17 7 20 40 20 l40 0 0 100 0 100 40 0 c33
0 40 3 40 20 0 17 7 20 40 20 33 0 40 3 40 20 0 16 -7 20 -37 20 l-37 0 37 38
c20 21 37 48 37 60 0 19 5 22 40 22 22 0 40 5 40 10 0 6 18 10 40 10 22 0 40
5 40 10 0 6 -32 10 -77 10 l-78 0 32 32 c28 28 38 32 78 29 27 -1 45 2 45 8 0
6 -18 11 -40 11 -33 0 -40 3 -40 20 0 17 7 20 40 20 l40 0 0 58 c0 53 3 61 34
91 34 33 36 34 120 33 50 -1 86 3 86 8 0 6 -35 10 -80 10 -73 0 -80 2 -80 20
0 17 7 20 40 20 22 0 40 5 40 10 0 6 15 10 34 10 78 0 79 3 36 232 -16 88 -30
170 -30 182 0 14 -6 23 -15 23 -11 0 -13 -6 -8 -21 4 -12 7 -33 7 -48 -1 -16
3 -28 7 -28 5 0 9 -5 9 -11 0 -8 -5 -8 -15 1 -18 15 -19 7 -4 -22 9 -17 13
-18 21 -7 8 11 8 10 4 -4 -3 -10 -6 -23 -6 -28 0 -23 -18 -6 -25 24 -12 46
-12 61 -1 68 5 4 5 19 -2 36 -5 17 -8 41 -5 54 5 28 -34 84 -43 62 -9 -22 -33
-14 -40 12 -4 14 -4 29 0 32 3 4 6 -3 6 -15 0 -13 6 -22 15 -22 8 0 15 6 15
14 0 26 20 28 29 4 6 -13 10 -18 11 -13 1 6 8 -8 16 -30 14 -38 14 -39 9 -6
-3 18 -5 44 -5 58 0 13 -4 21 -10 18 -6 -4 -8 5 -5 22 8 41 -9 128 -23 125 -7
-1 -12 2 -12 7 0 5 -3 18 -6 28 -4 13 -3 15 4 4 19 -27 21 9 6 115 -8 60 -15
116 -16 124 0 8 -8 98 -19 200 -84 857 -77 1789 22 2665 70 617 171 1176 325
1800 84 336 232 856 249 873 7 8 6 -63 -5 -238 -67 -1084 -40 -2303 76 -3420
24 -235 43 -394 69 -580 14 -96 25 -182 26 -190 1 -27 30 -223 40 -275 5 -28
18 -107 29 -175 11 -69 22 -132 24 -140 2 -8 7 -43 11 -77 8 -64 20 -81 28
-40 3 17 5 16 6 -8 0 -17 5 -45 11 -64 11 -40 0 -32 -17 12 -13 31 -13 31 -7
-13 4 -25 11 -48 17 -51 5 -4 6 -12 3 -18 -8 -13 13 -120 27 -138 5 -7 5 -18
1 -25 -5 -10 -4 -10 5 -2 10 9 10 17 2 32 -15 29 -14 36 4 18 8 -8 15 -22 15
-30 0 -10 9 -16 24 -16 18 0 25 6 28 23 2 18 10 23 46 25 34 3 42 7 42 23 0
16 7 19 40 19 l40 0 0 60 0 60 40 0 c33 0 40 3 40 20 0 17 7 20 40 20 22 0 40
5 40 10 0 6 33 10 80 10 47 0 80 4 80 10 0 6 -33 10 -80 10 -73 0 -80 2 -80
20 0 17 7 20 40 20 22 0 40 5 40 10 0 6 18 10 40 10 22 0 40 5 40 10 0 6 -18
10 -40 10 -33 0 -40 3 -40 20 0 17 7 20 40 20 22 0 40 5 40 10 0 6 33 10 80
10 47 0 80 4 80 10 0 6 -33 10 -80 10 -73 0 -80 2 -80 20 0 18 7 20 80 20 l80
0 0 40 0 40 40 0 c22 0 40 5 40 10 0 6 18 10 40 10 22 0 40 5 40 10 0 6 -18
10 -40 10 -33 0 -40 3 -40 20 0 17 7 20 40 20 33 0 40 3 40 20 0 17 7 20 40
20 33 0 40 3 40 20 0 17 7 20 40 20 22 0 40 5 40 10 0 6 33 10 80 10 47 0 80
4 80 10 0 6 -33 10 -80 10 -73 0 -80 2 -80 20 0 18 7 20 80 20 l80 0 0 40 0
40 40 0 c22 0 40 5 40 10 0 6 47 10 120 10 73 0 120 4 120 10 0 6 -47 10 -120
10 -113 0 -120 1 -120 20 0 18 7 20 80 20 47 0 80 4 80 10 0 6 18 10 40 10 22
0 40 5 40 10 0 6 -18 10 -40 10 -33 0 -40 3 -40 20 0 18 7 20 80 20 47 0 80 4
80 10 0 6 18 10 40 10 22 0 40 5 40 10 0 6 -18 10 -40 10 -33 0 -40 3 -40 20
0 17 7 20 40 20 33 0 40 3 40 20 0 17 7 20 40 20 33 0 40 3 40 20 0 18 7 20
80 20 47 0 80 4 80 10 0 6 47 10 120 10 73 0 120 4 120 10 0 6 -47 10 -120 10
-113 0 -120 1 -120 20 0 18 7 20 80 20 47 0 80 4 80 10 0 6 18 10 40 10 22 0
40 5 40 10 0 6 -18 10 -40 10 -33 0 -40 3 -40 20 0 18 7 20 80 20 47 0 80 4
80 10 0 6 47 10 120 10 73 0 120 4 120 10 0 6 -47 10 -120 10 -113 0 -120 1
-120 20 0 19 7 20 120 20 l120 0 0 40 0 40 80 0 c47 0 80 4 80 10 0 6 60 10
160 10 100 0 160 4 160 10 0 6 -60 10 -160 10 -153 0 -160 1 -160 20 0 19 7
20 160 20 l160 0 0 40 0 40 75 0 c43 0 75 4 75 10 0 6 6 10 14 10 8 0 18 9 21
21 5 16 10 18 18 10 9 -9 8 -17 -1 -31 -11 -18 -10 -20 13 -20 14 0 25 4 25 8
0 11 39 12 45 1 4 -5 11 -7 16 -4 5 3 6 -1 3 -9 -8 -22 12 -20 26 1 9 15 10
14 6 -7 -3 -14 -3 -19 0 -12 3 6 10 9 16 6 14 -9 2 12 -84 144 -41 62 -77 109
-81 106 -12 -12 -8 -26 6 -18 8 5 7 2 -2 -9 -8 -10 -11 -21 -7 -24 4 -4 11 -1
16 7 8 13 10 12 10 -2 0 -9 9 -24 21 -32 13 -9 18 -19 14 -27 -5 -7 -4 -10 3
-5 6 3 13 2 17 -3 3 -6 -6 -8 -22 -4 -48 9 -56 8 -60 -7 -4 -13 -3 -13 6 0 9
12 11 11 11 -10 0 -23 -1 -23 -17 -7 -14 14 -15 20 -3 41 7 14 17 23 22 20 4
-3 8 0 8 5 0 18 -38 12 -43 -6 -3 -10 -3 1 -2 24 2 23 8 51 14 62 7 12 7 22 2
25 -5 4 -12 0 -15 -6 -4 -7 -4 -3 -2 9 2 12 1 22 -3 21 -21 -2 -41 4 -41 13 0
6 7 9 15 5 22 -8 19 -1 -21 66 -70 115 -106 162 -125 165 -10 2 -19 -2 -19 -8
0 -5 -4 -7 -10 -4 -5 3 -10 11 -10 16 0 6 5 7 10 4 6 -3 10 -1 10 6 0 8 4 8
15 -1 25 -21 17 -3 -31 69 -33 50 -51 68 -63 64 -13 -4 -13 -3 -2 5 12 9 5 25
-38 91 -30 45 -58 78 -64 74 -6 -3 -7 -1 -3 5 7 12 -4 40 -26 64 -7 8 -18 23
-25 33 -93 154 -116 186 -125 173 -8 -10 -8 -9 -4 4 3 12 -34 78 -113 195
-228 344 -578 877 -704 1073 -245 382 -517 816 -517 826 0 2 -15 27 -34 56
-104 165 -294 511 -434 793 -252 507 -399 920 -477 1334 -44 240 -50 305 -50
596 1 241 4 300 23 424 22 139 84 400 116 490 9 24 15 46 13 48 -2 2 -19 -14
-38 -35z m2409 -6117 c-3 -3 -9 2 -12 12 -6 14 -5 15 5 6 7 -7 10 -15 7 -18z
m-17 -12 c13 -16 12 -17 -3 -4 -10 7 -18 15 -18 17 0 8 8 3 21 -13z m149 -260
c-11 -17 -11 -17 -6 0 3 10 6 24 7 30 0 9 2 9 5 0 3 -7 0 -20 -6 -30z m102
-85 c-7 -7 -12 -8 -12 -2 0 14 12 26 19 19 2 -3 -1 -11 -7 -17z m88 -127 c-1
-13 -2 -13 -11 3 -9 15 -13 16 -20 5 -7 -11 -9 -11 -9 2 0 9 3 19 7 22 9 10
33 -13 33 -32z m-22 -36 c-3 -33 -16 -33 -14 0 0 14 4 25 8 25 4 0 7 -11 6
-25z m-39 6 c6 -1 -21 -31 -28 -31 -4 0 -7 8 -7 19 0 17 4 18 35 12z m211
-221 c-14 -9 -7 -14 13 -11 5 1 7 -4 5 -11 -3 -7 -14 -12 -26 -12 -13 1 -24
-6 -27 -17 -4 -11 -11 -19 -16 -19 -6 0 -6 8 1 20 8 15 8 20 -2 20 -14 0 21
34 42 42 21 7 27 -1 10 -12z m50 -49 c0 -4 -7 -8 -15 -8 -16 0 -20 9 -9 20 8
8 24 -1 24 -12z m-3220 -1478 c-1 -91 -4 -133 -10 -122 -5 9 -8 69 -7 133 1
70 -2 118 -8 120 -5 3 -2 5 8 5 15 1 17 -12 17 -136z m-113 95 c-3 -7 -5 -2
-5 12 0 14 2 19 5 13 2 -7 2 -19 0 -25z m46 -75 c2 -24 -1 -29 -10 -21 -8 7
-13 33 -12 72 1 60 1 60 10 21 5 -22 10 -54 12 -72z m7 -89 c0 -19 -4 -33 -8
-30 -8 5 -4 66 4 66 2 0 4 -16 4 -36z m-2 -74 c-2 -7 -10 1 -17 16 -12 27 -11
28 4 12 10 -9 16 -21 13 -28z m-911 -342 c-3 -8 -6 -5 -6 6 -1 11 2 17 5 13 3
-3 4 -12 1 -19z m20 -180 c-3 -8 -6 -5 -6 6 -1 11 2 17 5 13 3 -3 4 -12 1 -19z
m-27 -57 c0 -22 -4 -43 -10 -46 -6 -4 -10 12 -10 39 0 25 5 46 10 46 6 0 10
-18 10 -39z m60 -366 c0 -5 -5 -3 -10 5 -5 8 -10 20 -10 25 0 6 5 3 10 -5 5
-8 10 -19 10 -25z m44 -60 c2 -39 5 -80 5 -93 1 -13 5 -20 11 -17 6 4 10 -7
10 -24 0 -30 -1 -31 -50 -31 -47 0 -50 1 -50 26 0 21 3 25 18 19 33 -14 47
-10 50 13 3 16 -2 22 -15 22 -22 0 -24 32 -4 69 12 21 11 23 -3 18 -22 -9 -21
9 2 22 15 9 15 12 2 21 -13 9 -13 11 0 19 8 6 15 9 16 8 2 -1 5 -34 8 -72z
m-1766 -2019 c-7 -8 -15 -12 -17 -11 -5 6 10 25 20 25 5 0 4 -6 -3 -14z m22
-81 c7 -8 8 -15 2 -15 -5 0 -15 7 -22 15 -7 8 -8 15 -2 15 5 0 15 -7 22 -15z
m148 -181 c-4 -3 -12 5 -18 18 -12 22 -12 22 6 6 10 -10 15 -20 12 -24z m79
-124 c4 -8 5 -22 4 -30 -1 -11 3 -9 14 5 14 18 14 20 -2 27 -15 6 -16 7 -2 7
23 1 41 -23 32 -44 -4 -13 -3 -16 5 -11 7 4 12 1 12 -9 0 -11 5 -15 15 -11 10
4 15 -1 15 -15 0 -11 -4 -17 -10 -14 -5 3 -10 1 -10 -4 0 -6 5 -11 11 -11 5 0
7 -5 3 -11 -4 -8 -13 -4 -25 12 -10 13 -16 25 -14 28 10 9 -18 42 -31 37 -17
-7 -34 24 -33 61 0 15 3 21 6 13 2 -8 7 -22 10 -30z m143 -10 c0 -11 -2 -20
-4 -20 -2 0 -6 9 -9 20 -3 11 -1 20 4 20 5 0 9 -9 9 -20z m-52 -9 c3 -8 -1
-12 -9 -9 -7 2 -15 10 -17 17 -3 8 1 12 9 9 7 -2 15 -10 17 -17z m82 10 c0 -6
-4 -13 -10 -16 -5 -3 -10 1 -10 9 0 9 5 16 10 16 6 0 10 -4 10 -9z m0 -76 c14
-17 7 -45 -12 -45 -8 0 -13 13 -14 30 -1 33 7 38 26 15z m-40 -15 c0 -11 -4
-20 -10 -20 -5 0 -10 9 -10 20 0 11 5 20 10 20 6 0 10 -9 10 -20z"/>
<path d="M10770 10330 c0 -5 7 -10 16 -10 8 0 12 5 9 10 -3 6 -10 10 -16 10
-5 0 -9 -4 -9 -10z"/>
<path d="M10755 10170 c-3 -5 0 -10 7 -11 7 0 4 -4 -7 -9 -18 -8 -17 -9 8 -9
25 -1 27 1 17 19 -12 23 -16 24 -25 10z"/>
<path d="M10903 10152 c-17 -5 -20 -11 -13 -22 5 -8 10 -26 11 -40 0 -22 1
-23 8 -5 8 19 8 19 20 0 11 -19 12 -19 6 3 -4 13 -2 22 4 22 6 0 11 -6 11 -14
0 -8 7 -17 16 -20 12 -4 14 -14 10 -38 -5 -31 -5 -32 5 -6 8 22 5 34 -21 77
-18 28 -32 51 -33 50 -1 -1 -12 -4 -24 -7z m22 -21 c-8 -14 -25 -14 -25 0 0 5
5 7 10 4 6 -3 10 -1 10 6 0 7 3 10 6 6 3 -3 3 -10 -1 -16z"/>
<path d="M10876 10082 c-4 -13 -5 -26 -2 -29 10 -11 18 4 14 29 l-4 23 -8 -23z"/>
<path d="M10995 10020 c-4 -12 -4 -24 -1 -27 3 -4 6 2 6 12 0 18 1 18 16 -1
14 -18 14 -18 3 6 -16 34 -16 34 -24 10z"/>
<path d="M11052 9945 c7 -16 15 -32 18 -35 9 -9 40 -59 40 -66 0 -3 -7 -1 -15
6 -12 10 -15 10 -15 0 0 -6 9 -14 20 -17 11 -3 20 -10 20 -15 0 -5 4 -6 10 -3
5 3 -8 35 -32 73 -49 79 -64 98 -46 57z"/>
<path d="M11047 9858 c-9 -31 -2 -33 11 -3 6 14 8 25 3 25 -5 0 -11 -10 -14
-22z"/>
<path d="M11136 9794 c-3 -9 -4 -19 -1 -22 3 -3 5 1 5 9 0 9 8 5 21 -11 13
-17 17 -18 10 -5 -22 43 -28 48 -35 29z"/>
<path d="M11155 9723 c15 -36 25 -52 25 -41 0 11 -30 78 -35 78 -3 0 2 -17 10
-37z"/>
<path d="M11181 9735 c0 -5 6 -19 14 -29 8 -11 15 -15 15 -10 0 6 -7 19 -15
30 -8 10 -14 15 -14 9z"/>
<path d="M11224 9667 c7 -21 76 -127 83 -127 5 0 2 5 -50 85 -21 33 -36 52
-33 42z"/>
<path d="M11320 9466 c0 -8 4 -17 9 -20 5 -4 7 3 4 14 -6 23 -13 26 -13 6z"/>
<path d="M11352 9455 c6 -14 15 -25 20 -25 5 0 1 11 -8 25 -9 14 -18 25 -20
25 -2 0 2 -11 8 -25z"/>
<path d="M11370 9413 c0 -7 3 -13 8 -13 4 0 15 -12 24 -27 10 -16 18 -23 18
-18 0 6 -11 24 -25 40 -13 17 -24 24 -25 18z"/>
<path d="M11410 9330 c0 -5 5 -10 11 -10 5 0 7 5 4 10 -3 6 -8 10 -11 10 -2 0
-4 -4 -4 -10z"/>
<path d="M11446 9268 c3 -5 10 -6 15 -3 13 9 11 12 -6 12 -8 0 -12 -4 -9 -9z"/>
<path d="M11470 9251 c0 -5 7 -15 17 -22 15 -13 15 -12 4 9 -12 23 -21 28 -21
13z"/>
<path d="M11640 8971 c0 -6 4 -13 10 -16 6 -3 7 1 4 9 -7 18 -14 21 -14 7z"/>
<path d="M11690 8891 c0 -6 4 -13 10 -16 6 -3 7 1 4 9 -7 18 -14 21 -14 7z"/>
<path d="M11820 8651 c0 -6 4 -13 10 -16 6 -3 7 1 4 9 -7 18 -14 21 -14 7z"/>
<path d="M7600 8456 c0 -8 5 -18 10 -21 6 -3 10 3 10 14 0 12 -4 21 -10 21 -5
0 -10 -6 -10 -14z"/>
<path d="M7640 8455 c7 -8 16 -15 21 -15 5 0 9 7 9 15 0 9 -9 15 -21 15 -18 0
-19 -2 -9 -15z"/>
<path d="M7616 8395 c-9 -26 -7 -32 5 -12 6 10 9 21 6 23 -2 3 -7 -2 -11 -11z"/>
<path d="M7658 8400 c-3 -9 0 -24 7 -33 11 -15 13 -16 19 -2 3 8 1 15 -4 15
-5 0 -10 8 -12 18 -3 14 -5 15 -10 2z"/>
<path d="M7627 8320 c4 -19 9 -46 13 -60 6 -23 7 -22 14 13 4 21 11 35 16 32
4 -3 6 4 3 15 -7 27 -25 37 -23 14 4 -36 -1 -39 -15 -9 l-14 30 6 -35z"/>
<path d="M7667 8170 c-3 -11 -2 -22 2 -24 4 -3 8 6 9 20 2 29 -4 31 -11 4z"/>
<path d="M7671 8104 c0 -11 3 -14 6 -6 3 7 2 16 -1 19 -3 4 -6 -2 -5 -13z"/>
<path d="M7700 8057 c0 -4 -5 -5 -12 -1 -7 4 -8 3 -4 -4 4 -7 14 -12 22 -12
16 0 19 -33 5 -59 -5 -9 -6 -23 -2 -30 5 -8 11 5 15 35 4 27 9 56 12 64 2 11
-3 16 -16 16 -11 0 -20 -4 -20 -9z"/>
<path d="M7690 8016 c0 -9 5 -16 10 -16 6 0 10 4 10 9 0 6 -4 13 -10 16 -5 3
-10 -1 -10 -9z"/>
<path d="M7751 7964 c0 -11 3 -14 6 -6 3 7 2 16 -1 19 -3 4 -6 -2 -5 -13z"/>
<path d="M7731 7944 c0 -11 3 -14 6 -6 3 7 2 16 -1 19 -3 4 -6 -2 -5 -13z"/>
<path d="M7720 7901 c0 -5 5 -13 10 -16 6 -3 10 -2 10 4 0 5 -4 13 -10 16 -5
3 -10 2 -10 -4z"/>
<path d="M7743 7864 c-3 -8 -2 -19 3 -24 5 -5 10 1 10 16 2 27 -4 31 -13 8z"/>
<path d="M7791 7734 c0 -11 3 -14 6 -6 3 7 2 16 -1 19 -3 4 -6 -2 -5 -13z"/>
<path d="M7770 7703 c0 -13 5 -23 10 -23 13 0 13 11 0 30 -8 12 -10 11 -10 -7z"/>
<path d="M6820 7403 c0 -5 5 -24 11 -41 7 -21 7 -42 0 -66 -5 -20 -6 -34 -1
-31 5 3 12 -10 16 -30 3 -19 10 -38 15 -41 5 -3 9 -16 9 -29 0 -13 4 -27 10
-30 13 -8 2 50 -17 92 -8 18 -12 36 -9 41 7 12 -14 123 -25 137 -6 5 -9 5 -9
-2z m27 -125 c-3 -8 -6 -5 -6 6 -1 11 2 17 5 13 3 -3 4 -12 1 -19z"/>
<path d="M6810 7343 c0 -21 3 -24 9 -14 5 8 7 20 4 28 -8 21 -13 15 -13 -14z"/>
<path d="M6720 7260 c0 -5 16 -10 35 -10 19 0 35 5 35 10 0 6 -16 10 -35 10
-19 0 -35 -4 -35 -10z"/>
<path d="M6800 7230 c0 -5 5 -10 11 -10 5 0 7 5 4 10 -3 6 -8 10 -11 10 -2 0
-4 -4 -4 -10z"/>
<path d="M7911 7194 c0 -11 3 -14 6 -6 3 7 2 16 -1 19 -3 4 -6 -2 -5 -13z"/>
<path d="M6815 7190 c3 -5 11 -10 16 -10 6 0 7 5 4 10 -3 6 -11 10 -16 10 -6
0 -7 -4 -4 -10z"/>
<path d="M6800 7131 c0 -25 6 -27 13 -6 4 8 2 17 -3 20 -6 4 -10 -3 -10 -14z"/>
<path d="M6887 7090 c3 -11 7 -20 9 -20 2 0 4 9 4 20 0 11 -4 20 -9 20 -5 0
-7 -9 -4 -20z"/>
<path d="M6901 7038 c-1 -15 4 -30 9 -33 12 -7 12 12 0 40 -8 18 -9 17 -9 -7z"/>
<path d="M6902 6970 c0 -14 2 -19 5 -12 2 6 2 18 0 25 -3 6 -5 1 -5 -13z"/>
<path d="M6921 6964 c0 -11 3 -14 6 -6 3 7 2 16 -1 19 -3 4 -6 -2 -5 -13z"/>
<path d="M6895 6920 c-3 -5 -1 -10 4 -10 6 0 11 5 11 10 0 6 -2 10 -4 10 -3 0
-8 -4 -11 -10z"/>
<path d="M6921 6914 c0 -11 3 -14 6 -6 3 7 2 16 -1 19 -3 4 -6 -2 -5 -13z"/>
<path d="M6935 6880 c-3 -5 -1 -10 4 -10 6 0 11 5 11 10 0 6 -2 10 -4 10 -3 0
-8 -4 -11 -10z"/>
<path d="M6965 6759 c10 -35 23 -45 18 -15 -3 15 -10 29 -15 32 -6 4 -7 -2 -3
-17z"/>
<path d="M6966 6553 c-6 -14 -5 -15 5 -6 7 7 10 15 7 18 -3 3 -9 -2 -12 -12z"/>
<path d="M7020 6565 c0 -5 5 -17 10 -25 5 -8 10 -10 10 -5 0 6 -5 17 -10 25
-5 8 -10 11 -10 5z"/>
<path d="M7062 6410 c0 -14 2 -19 5 -12 2 6 2 18 0 25 -3 6 -5 1 -5 -13z"/>
<path d="M7131 6164 c0 -11 3 -14 6 -6 3 7 2 16 -1 19 -3 4 -6 -2 -5 -13z"/>
<path d="M7250 5805 c0 -5 5 -17 10 -25 5 -8 10 -10 10 -5 0 6 -5 17 -10 25
-5 8 -10 11 -10 5z"/>
<path d="M5560 5020 c0 -5 6 -10 14 -10 8 0 18 5 21 10 3 6 -3 10 -14 10 -12
0 -21 -4 -21 -10z"/>
<path d="M5381 5000 c9 -14 26 -30 38 -36 11 -6 18 -14 14 -17 -10 -11 48 -66
63 -60 8 3 11 9 8 14 -3 5 0 9 5 9 6 0 11 5 11 11 0 5 -5 7 -11 4 -6 -4 -17 1
-24 11 -9 11 -14 14 -15 7 0 -21 -20 -15 -20 6 0 11 -9 22 -19 26 -13 4 -17
12 -14 25 3 11 0 20 -6 20 -6 0 -11 -5 -11 -11 0 -8 -6 -7 -17 2 -17 13 -17
13 -2 -11z m109 -90 c0 -5 -4 -10 -10 -10 -5 0 -10 5 -10 10 0 6 5 10 10 10 6
0 10 -4 10 -10z"/>
<path d="M5502 4871 c-10 -6 -10 -10 3 -21 13 -11 15 -9 15 9 0 24 0 24 -18
12z"/>
<path d="M5547 4874 c-11 -11 -8 -34 4 -34 5 0 7 5 4 10 -10 16 7 12 27 -7 17
-15 18 -15 13 -1 -5 13 -2 15 14 11 13 -3 21 -1 21 7 0 8 -9 11 -29 7 -15 -3
-32 -2 -38 4 -5 5 -12 6 -16 3z"/>
<path d="M5650 4862 c0 -5 7 -9 15 -9 8 0 15 4 15 9 0 4 -7 8 -15 8 -8 0 -15
-4 -15 -8z"/>
<path d="M5548 4805 c11 -16 36 -45 55 -62 34 -32 35 -32 41 -10 6 26 -5 40
-30 35 -11 -2 -32 11 -52 32 -32 32 -33 33 -14 5z"/>
<path d="M5575 4808 c18 -26 82 -35 82 -12 0 17 -39 18 -56 2 -10 -11 -11 -9
-5 6 5 13 4 17 -4 12 -7 -4 -12 -2 -12 3 0 6 -5 11 -11 11 -5 0 -3 -10 6 -22z"/>
<path d="M5660 4740 c0 -5 5 -10 10 -10 6 0 10 5 10 10 0 6 -4 10 -10 10 -5 0
-10 -4 -10 -10z"/>
<path d="M5650 4711 c0 -6 5 -11 11 -11 5 0 7 -4 4 -10 -3 -5 -1 -10 4 -10 16
0 13 16 -4 30 -10 9 -15 9 -15 1z"/>
<path d="M5752 4685 c0 -16 2 -22 5 -12 2 9 2 23 0 30 -3 6 -5 -1 -5 -18z"/>
<path d="M5690 4661 c0 -5 5 -13 10 -16 6 -3 10 -2 10 4 0 5 -4 13 -10 16 -5
3 -10 2 -10 -4z"/>
<path d="M5730 4650 c0 -5 10 -15 23 -21 22 -12 22 -12 3 10 -21 23 -26 26
-26 11z"/>
<path d="M5735 4611 c11 -13 30 -36 43 -50 l23 -25 -10 27 c-7 17 -7 28 -1 32
6 4 10 -3 10 -13 0 -11 7 -25 15 -32 13 -11 14 -9 1 21 -14 33 -46 53 -46 28
0 -7 -12 -2 -27 12 l-28 24 20 -24z"/>
<path d="M5880 4531 c-6 -12 -7 -21 -1 -21 10 0 24 30 17 37 -2 3 -9 -5 -16
-16z"/>
<path d="M5912 4525 c0 -16 2 -22 5 -12 2 9 2 23 0 30 -3 6 -5 -1 -5 -18z"/>
<path d="M5820 4523 c0 -5 23 -28 51 -52 36 -31 48 -37 39 -21 -11 21 -10 22
6 16 17 -7 17 -6 -1 12 -11 10 -25 17 -31 15 -7 -2 -15 1 -19 6 -3 6 -11 9
-16 6 -5 -4 -9 1 -9 9 0 9 -4 16 -10 16 -5 0 -10 -3 -10 -7z"/>
<path d="M5930 4421 c0 -5 5 -13 10 -16 6 -3 10 -2 10 4 0 5 -4 13 -10 16 -5
3 -10 2 -10 -4z"/>
<path d="M5963 4401 c0 -11 5 -18 9 -15 4 3 5 11 1 19 -7 21 -12 19 -10 -4z"/>
<path d="M5980 4371 c0 -6 4 -12 8 -15 5 -3 9 1 9 9 0 8 -4 15 -9 15 -4 0 -8
-4 -8 -9z"/>
<path d="M6065 4301 c-3 -5 0 -13 6 -17 7 -4 9 -3 5 4 -3 5 0 13 6 15 9 4 10
6 1 6 -6 1 -14 -3 -18 -8z"/>
<path d="M6100 4255 c0 -8 29 -12 39 -5 9 5 4 8 -13 8 -14 0 -26 -2 -26 -3z"/>
<path d="M6340 4046 c0 -2 7 -6 15 -10 8 -3 15 -1 15 4 0 6 -7 10 -15 10 -8 0
-15 -2 -15 -4z"/>
<path d="M6380 4020 c0 -5 5 -10 11 -10 5 0 7 5 4 10 -3 6 -8 10 -11 10 -2 0
-4 -4 -4 -10z"/>
<path d="M6510 3916 c0 -2 8 -10 18 -17 15 -13 16 -12 3 4 -13 16 -21 21 -21
13z"/>
</g>
</svg>
