<svg xmlns="http://www.w3.org/2000/svg" viewBox="0 0 404.04 413.92"><g style="isolation:isolate"><g id="f02bcfce-f5ad-4138-9400-8f69ed1d423f" data-name="Layer 1"><path d="M601.72,290.53C597.46,404.75,503.66,494,392.21,489.82S193.87,389.7,198.13,275.48,296.19,72,407.64,76.18,606,176.3,601.72,290.53Z" transform="translate(-197.98 -76.04)" style="fill:#2197bd;fill-rule:evenodd"/><path d="M527.65,218.52a20.14,20.14,0,0,1,2.17-1.82,3.76,3.76,0,0,1,1.56-.34c1.22-.12,2.45-.23,3.67-.3a15.83,15.83,0,0,0,4.75-1.12,1.27,1.27,0,0,1,1.39.21q4,3.14,8.15,6.19a2.86,2.86,0,0,1,1,1.37c.83,2.34,1.68,4.68,2.48,7A1.4,1.4,0,0,0,554,230.8c1.37.24,2.73.58,4.1.86.22.05.45.07.76.11.32-2.37.62-4.69,1-7.16.84.74,1.56,1.36,2.25,2a1,1,0,0,1,.19.54.82.82,0,0,1-.08.4,5,5,0,0,0,.43,4.17c1.31,2.73,2.5,5.52,3.61,8.33a45.56,45.56,0,0,1,1.35,4.49c.63,2.16,1.25,4.31,1.86,6.47s1.19,4.12,1.75,6.19a3.84,3.84,0,0,0,1.24,2.14c1.49,1.21,2.88,2.51,4.33,3.75a2.54,2.54,0,0,1,.87,1.45c.39,1.66.83,3.3,1.27,4.94a1.4,1.4,0,0,0,.41.67c3.1,2.51,6.21,5,9.33,7.5a2,2,0,0,0,.41.13c-.42-.93-.75-1.78-1.17-2.59a21.92,21.92,0,0,1-2.08-6.17c-.33-1.7-.81-3.37-1.19-5.07a1.14,1.14,0,0,0-.62-.76c-1-.57-1.91-1.17-2.89-1.73a3.38,3.38,0,0,1-1.39-1.31c-.1-.18-.24-.34-.35-.51a43.39,43.39,0,0,0-5.67-7.35,1.67,1.67,0,0,1-.52-1.26c0-2.15-.14-4.29-.2-6.44a3.4,3.4,0,0,0-.55-1.82c-.85-1.32-1.65-2.67-2.51-4.09l2.32-2c.61,1,1.21,2,1.74,3a4.6,4.6,0,0,0,1.49,1.64c1.74,1.19,3.46,2.43,5.19,3.65.21.15.45.28.74.47a7.77,7.77,0,0,0,.34-.75c1.32-3.55,2.61-7.11,3.94-10.65a1.35,1.35,0,0,0-.18-1.5,10.67,10.67,0,0,1-2.37-6.39,6,6,0,0,0-1.85-3.83c-3.36-3.58-6.63-7.24-10-10.84a2.06,2.06,0,0,1-.57-1.83,62.32,62.32,0,0,0,.57-6.81,5.75,5.75,0,0,1,1.12-3.4,50.61,50.61,0,0,1,6-7.05c-.35-1.15-.71-2.32-1.08-3.48l-2.65-8.35a208.62,208.62,0,0,0-18.86-27.84l-.48-.21a1.35,1.35,0,0,1-.93-1.07c0-.22-.12-.44-.17-.66C524.3,114.3,482.7,89,436.54,79.86a2,2,0,0,0-.2.21c-.93,1.22-1.91,2.4-2.89,3.62l-4.11-.79-6.58-1.32a7.66,7.66,0,0,1-.85-.27l-.61.1c-.75.82-1.53,1.62-2.25,2.47a2.22,2.22,0,0,1-2.08.81,12.3,12.3,0,0,0-1.82,0,1.25,1.25,0,0,0-1.06.5c-.87,1.26-1.78,2.5-2.75,3.85l9.21,5.69c0,.06-.05.12-.08.19-1.33-.19-2.67-.37-4-.57s-2.69-.36-4-.64a5.39,5.39,0,0,0-3.05.35c-1.62.59-3.27,1.1-5,1.67.86,2.17,2.08,4.12,2.86,6.33l-8.72-5.26a8.7,8.7,0,0,0-.16.86c-.14,1.66-.29,3.31-.38,5a.91.91,0,0,1-.7,1c-.75.22-1.51.45-2.26.65-1.64.44-3.29.85-4.93,1.3s-3.2.9-4.8,1.36c-.75.21-1.51.39-2.25.64-1.69.57-3.39,1.17-5.07,1.79s-3.47,1.35-5.21,2a2,2,0,0,1-1.58,0c-1.66-.69-3.35-1.32-5.08-2-1.25,1.29-2.47,2.56-3.73,3.88l-2.24-1.06c-3.72-1.78-7.44-3.55-11.15-5.36a2.49,2.49,0,0,0-2.05-.1c-1.39.46-2.79.85-4.19,1.27l-4.3,1.28c-.49.14-1,.29-1.47.41a33.25,33.25,0,0,0-6.7,2.92q-8.41,4.09-16.8,8.24a2.85,2.85,0,0,0-1.05.9c-1.06,1.58-2.07,3.2-3.08,4.82a3.11,3.11,0,0,1-1.25,1.16c-2.94,1.54-5.86,3.14-8.81,4.66a2.52,2.52,0,0,0-1.34,1.54c-.62,1.77-1.31,3.51-2,5.26-.06.16-.1.32-.2.66l2.32-.9,4.44-1.74a1.31,1.31,0,0,1,.57-.13l3.64.4c-1.71,3.5-3.37,6.92-5,10.33,6.31-3.68,11.25-8.89,16.53-13.95l-4.18-2.52c.33-.27.55-.46.79-.63,4.46-3.18,8.94-6.35,13.38-9.55a1.71,1.71,0,0,1,1.87-.26c1,.45,2.11.76,3.17,1.15.24.08.47.2.87.37-1.88,1-3.78,1.56-5.36,2.75s-3.18,2.2-4.9,3.38a19.43,19.43,0,0,0,2.81,1.5,5.33,5.33,0,0,0,2.11,0c1.25-.09,2.5-.27,3.75-.36a4.75,4.75,0,0,1,1.41.11,15.71,15.71,0,0,1,3,.88c-.26.11-.52.24-.78.33a91.37,91.37,0,0,1-10.87,3.18,1.81,1.81,0,0,0-1.35,1c-.52,1-1.12,1.95-1.69,2.94l2.49,2.23a6.8,6.8,0,0,1-.69.5c-2,1.08-4.08,2.17-6.14,3.23a3.56,3.56,0,0,1-1.25.33c-.85.07-1.7.09-2.55.08a1.05,1.05,0,0,0-1,.53c-.61.9-1.28,1.77-1.88,2.68a1.45,1.45,0,0,1-1.16.71,20.81,20.81,0,0,0-7.52,2.42c-1.13.55-2.28,1-3.51,1.6a17.72,17.72,0,0,1-1.58-2.85c-.09-.17.09-.51.19-.75.49-1.13,1-2.25,1.5-3.37a2.08,2.08,0,0,0,.21-1l-3,2.4c-2.14,1.74-4.31,3.46-6.41,5.24a19.73,19.73,0,0,1-4.31,2.7,19.47,19.47,0,0,0-7.08,5.54,9.5,9.5,0,0,1-1.47,1.43c.31-1.61.18-3.34,1.48-4.62a1,1,0,0,0,.33-1.19,10.07,10.07,0,0,1-.43-4.43,11.37,11.37,0,0,1,.09-1.94,1.1,1.1,0,0,0-.84-1.39c-.15-.06-.3-.14-.62-.29a8.92,8.92,0,0,1,1.49-.91,2.08,2.08,0,0,0,1.5-2.57,5.6,5.6,0,0,0-.68-2.41,1.82,1.82,0,0,0-1.67-1.07,8.49,8.49,0,0,1-1.06-.11,1.6,1.6,0,0,0-.12.48,7.07,7.07,0,0,1-.69,3.36,2.72,2.72,0,0,1-.82,1.12,8.13,8.13,0,0,0-2.39,3.72l1.91.18c0,.19,0,.31-.05.38a5.85,5.85,0,0,0-1.05,3.75,1,1,0,0,1-.88,1.16c-.94.28-1.86.66-2.81.92a9.18,9.18,0,0,0-3.58,2.42l2.5,1.49c-1,.39-1.79.73-2.62,1s-1.49.5-2.2.83a6.53,6.53,0,0,0-1.23.87c-.5.41-1,.85-1.63,1.45,1.93.19,3.55,1,5.34.23a24.83,24.83,0,0,1,3.31-1,1.78,1.78,0,0,1,1.54.17,5,5,0,0,0,3,.5,4.44,4.44,0,0,0,1.14-.47l.12.2c-.54.44-1.08.89-1.63,1.32s-1.26.95-1.83,1.49a1.56,1.56,0,0,1-1.58.37c-1-.23-2-.41-3-.56a1.51,1.51,0,0,0-.95.13c-1.95,1.3-3.88,2.64-5.81,4-.05,0-.08.1-.16.23.53.71,1.05,1.47,1.61,2.18a1.05,1.05,0,0,1,.13,1.3c-.93,1.78-1.8,3.6-2.69,5.39a3.32,3.32,0,0,1-.51.77c-1.75,1.86-3.51,3.7-5.3,5.59l-6.31-1.65c-.69,1.16-1.39,2.31-2.07,3.48-2.85,4.81-5.68,9.63-8.54,14.44-.9,1.52-.91,1.5,0,3.06s1.92,3.2,2.88,4.82c1-.16,1.87-.27,2.76-.47,1.69-.38,3.38-.78,5.06-1.22a13.94,13.94,0,0,0,2.2-.76c1.12-.5,2.19-1.11,3.31-1.61a2.36,2.36,0,0,0,1.18-1.19c1.76-3.66,3.55-7.3,5.3-11a2.48,2.48,0,0,1,1.08-1.16q5.83-3.17,11.65-6.37a1.43,1.43,0,0,1,1.33-.12c2.26.86,4.55,1.66,6.81,2.52a3,3,0,0,1,1.14.8q3.33,3.74,6.61,7.53a4.62,4.62,0,0,1,.72,1.33c.58,1.52,1.12,3.05,1.75,4.77.6-.69,1.16-1.23,1.6-1.85a3.49,3.49,0,0,1,2.87-1.65,11.48,11.48,0,0,0,1.82-.29c0-.16,0-.28,0-.35-.85-1.44-1.63-2.92-2.58-4.29-1.94-2.76-4-5.46-6-8.17a10.71,10.71,0,0,0-1.61-1.69c-1-.89-2.09-1.72-3.14-2.58a1.6,1.6,0,0,0,.05-.21l5.07.09.61-2.63a4.16,4.16,0,0,1,.58.39q4.35,4.1,8.68,8.23a3.68,3.68,0,0,1,.79,1.16c1.11,2.64,2.17,5.29,3.26,7.92a1.91,1.91,0,0,0,.59.8c1.82,1.32,3.67,2.61,5.5,3.91a1.62,1.62,0,0,0,.31.07c0-.38,0-.74-.05-1.09-.2-2-.38-4-.62-6a2.18,2.18,0,0,1,.39-1.53c.86-1.35,1.71-2.71,2.52-4.09.24-.41.67-.79.39-1.39-.05-.11.14-.36.26-.51.81-1.06,1.64-2.1,2.43-3.17a1.19,1.19,0,0,1,1.07-.46l4.69,0a.81.81,0,0,1,.86.56c.84,2,1.8,4,2.54,6,.62,1.73,1,3.54,1.48,5.31.39,1.41.73,2.84,1.17,4.23a1.6,1.6,0,0,0,.74.76c1.08.57,2.18,1.12,3.3,1.63a66.41,66.41,0,0,1,7.17,4.15l1.07.65c.78-1,1.57-1.89,2.29-2.86a3,3,0,0,1,4.33-.42,1.23,1.23,0,0,1,.3,1.54q-3.24,7.5-6.41,15a1.64,1.64,0,0,1-1.32,1.07c-1.9.39-3.78.88-5.65,1.36a2,2,0,0,1-1.47-.17c-1.49-.74-3-1.44-4.53-2.15-.2-.1-.43-.18-.72-.29l-2.45,4.75-7.25-.63c-2.1-.2-4.19-.42-6.29-.59a1.66,1.66,0,0,1-1.41-.82c-.77-1.24-1.6-2.44-2.44-3.7l-5.67,3.13c-.68.38-1.35.8-2.06,1.12a1.57,1.57,0,0,0-.95,1.41c-.23,1.69-.52,3.36-.78,5,0,.23-.12.45-.19.73l-5.84-1.13c-.74-.14-1.47-.35-2.21-.42a1.35,1.35,0,0,1-1.24-1.12c-.56-1.71-1.19-3.41-1.81-5.2l-3.13-.11c-1.63,0-3.27-.08-4.9-.09a2.31,2.31,0,0,1-1.41-.48c-1-.73-2-1.42-3.05-2.18L278.39,209l-1.31.22c-3.5.59-7,1.2-10.49,1.77a4.84,4.84,0,0,1-1.61,0c-1.69-.36-3.39-.73-5.07-1.19a2.12,2.12,0,0,0-2,.36c-2.21,1.6-4.47,3.12-6.69,4.7a1.9,1.9,0,0,1-1.61.34c-2.47-.51-4.95-.94-7.42-1.45a1.28,1.28,0,0,0-1.34.43q-5.3,5.4-10.63,10.77a1.85,1.85,0,0,0-.57,1.26c-.09,1.9-.2,3.8-.3,5.7a1.88,1.88,0,0,1-.54,1.27c-3.36,3.54-6.66,7.12-10,10.65a15.85,15.85,0,0,0-2.15,3c-2.49,4.27-5,8.52-7.48,12.79a3.33,3.33,0,0,0-.38,1.35c-.8,8.39-1.57,16.78-2.36,25.16a7,7,0,0,1-.27,1.07c.05.27.1.54.14.8.32.74.7,1.46.95,2.21.82,2.45,1.58,4.92,2.38,7.37s1.63,4.89,2.41,7.35a57.89,57.89,0,0,1,1.85,6.58c.35,1.94.88,3.85,1.38,5.76a1.89,1.89,0,0,0,.57.8q3.75,3.54,7.52,7.06l5.58,5.26c.19.19.4.36.7.63l4.78-4.07,6,2.8,13.79-8.89c.83,1.32,1.61,2.55,2.38,3.79,1.28,2,2.58,4.09,3.83,6.16a2,2,0,0,0,1.59,1.06c2.73.39,5.45.83,8.17,1.25l.94.18c.25,1.82.5,3.61.74,5.39.49,3.59,1,7.16,1.44,10.75a3.31,3.31,0,0,0,.65,1.57c3.27,4.44,6.51,8.91,9.8,13.33a11,11,0,0,1,1.72,3.33c1.21,3.9,2.46,7.78,3.71,11.67a5.24,5.24,0,0,0,1,1.87c1.45,1.72,2.84,3.48,4.29,5.2a1.59,1.59,0,0,1,.4,1.56c-.67,2.88-1.21,5.8-1.92,8.68a6.46,6.46,0,0,0,.23,3.77c.92,2.81,1.79,5.64,2.66,8.47a3.7,3.7,0,0,0,1,1.63q4.67,4.51,9.29,9.07a6,6,0,0,1,1,1.18c2.84,4.45,5.69,8.9,8.45,13.4a41.24,41.24,0,0,0,5.86,7.3c2.91,3,5.75,6,8.65,9a8,8,0,0,1,1.35,2.82c.35.84.63,1.71.91,2.59a2.22,2.22,0,0,0,1.21,1.29c3.37,1.7,6.73,3.44,10.09,5.18a4.33,4.33,0,0,1,.61.47l.4-.07c.1-1.59.2-3.18.31-4.83,1.27-.06,2.47-.13,3.68-.17l4.06-.14,5.58-.18c.75,0,1.49-.08,2.24-.1a1.64,1.64,0,0,0,1.29-.68q7.36-9.18,14.77-18.31c.15-.18.29-.38.51-.65-.21-.36-.43-.74-.65-1.1-.64-1.05-1.25-2.11-1.94-3.14a1.45,1.45,0,0,1-.14-1.5c1.09-2.77,2.1-5.55,3.2-8.31a1.17,1.17,0,0,0-.36-1.5c-2.77-2.58-5.51-5.19-8.25-7.8-.24-.22-.45-.47-.77-.81,1.71-.46,3.28-.9,4.86-1.28a1.77,1.77,0,0,0,1.21-.82,29.47,29.47,0,0,1,5.45-6.19c3.88-3.59,7.7-7.23,11.55-10.85l.78-.78c-.17-.33-.32-.66-.5-1q-4.4-8.25-8.83-16.5a22,22,0,0,1-1.85-4.62c-.51-1.88-1-3.77-1.66-5.59a15.09,15.09,0,0,0-1.62-2.94c-.93-1.45-.46-1.22-2.26-1.13-1.22.06-2.44.17-3.87.26.31-.44.5-.75.7-1q8.22-11.55,16.41-23.12c1.23-1.75,2.3-3.62,3.45-5.43s2.45-3.94,3.76-5.85c.61-.89,1.45-1.62,2.14-2.46a11.64,11.64,0,0,0,1.32-1.81c2.62-4.62,5.26-9.25,7.8-13.91,1.69-3.09,3.24-6.24,4.85-9.36a7.33,7.33,0,0,0,.75-2.42c.69-4.93,1.41-9.85,2.13-14.77,0-.41.09-.82.14-1.25-.41-.17-.66.13-.93.29l-13.55,8.22c-3.64,2.21-7.3,4.4-10.92,6.63a2,2,0,0,1-1.82.25c-1.34-.38-2.69-.7-4.13-1.07.61-1.75,1.18-3.42,1.79-5.19l-2.95-1.17-14.88-5.72a12.67,12.67,0,0,1-1.65-.82c-1.35-.8-2.67-1.63-4.1-2.51.35-3.09.71-6.19,1.08-9.39-.28-.12-.54-.25-.82-.35-2.35-.79-4.71-1.61-7.07-2.37a1.45,1.45,0,0,1-1.07-1.08c-.74-2.55-1.49-5.1-2.23-7.66a2.57,2.57,0,0,0-.95-1.51c-1.11-.8-2.2-1.62-3.37-2.32a5.85,5.85,0,0,1-2.14-2.11c-1.51-2.58-3.07-5.15-4.7-7.66a15,15,0,0,1-1.51-4.1c-1.07-3.73-2.09-7.48-3.14-11.22a3.35,3.35,0,0,1,0-.54c1.59,2.16,3,4.14,4.52,6.12l.2,0c.32-1.82.36-3.67.65-5.68l1,1.25c1.34,1.72,2.72,3.41,4,5.18,1,1.35,1.8,2.8,2.68,4.22.61,1,1.26,2,1.77,3,1.24,2.46,3.21,4.3,5.09,6.22a11.2,11.2,0,0,1,2.66,4.15c.74,2.06,1.66,4,2.45,6.06a1.41,1.41,0,0,0,1.25,1c1.51.24,3,.59,4.52.82a1.29,1.29,0,0,1,1.14,1c.66,1.68,1.39,3.33,2.08,5a2.94,2.94,0,0,0,1.13,1.39c2.21,1.53,4.38,3.12,6.6,4.66a2.93,2.93,0,0,1,1.07,1.31c1.5,3.46,3,6.91,4.57,10.36l.47,1c1.33-.07,2.69-.11,4-.22a1.61,1.61,0,0,1,1.38.47c.63.61,1.31,1.16,2,1.79l1.68-1.9a30.61,30.61,0,0,1,3.5-3.85,34.12,34.12,0,0,1,4.44-2.47c3.33-1.89,6.9-3.24,10.37-4.81a1.87,1.87,0,0,0,1.09-1.11c.65-1.62,1.36-3.2,2-4.82a2.63,2.63,0,0,1,1.14-1.36c1.49-.9,3-1.82,4.4-2.79a5,5,0,0,0,1.29-1.26c1.89-2.8,3.74-5.63,5.6-8.45a7.83,7.83,0,0,0,.6-1.06q2.16-4.8,4.29-9.62c.07-.15.12-.31.23-.57-.72-.4-1.42-.81-2.13-1.19-2.84-1.56-5.67-3.12-8.53-4.64a2.2,2.2,0,0,1-1.1-1.26c-.36-1-.76-2.05-1.14-3.07-.14-.34-.28-.68-.47-1.12-.24.24-.45.41-.61.6-1.81,2.21-3.65,4.42-5.44,6.65a2.7,2.7,0,0,1-1.86,1.09c-2,.28-4,.66-6.16,1a2.92,2.92,0,0,1,.15-.71c.55-1.28,1.11-2.56,1.7-3.82a2,2,0,0,0,.11-1.48c-.4-1.4-.78-2.81-1.19-4.32-.27.19-.47.29-.64.44-1,1-2.07,2-3.13,2.93a1.88,1.88,0,0,0-.62,1.24c-.11.76-.25,1.52-.4,2.44-.27-.26-.44-.39-.58-.55L389,225.32a1.6,1.6,0,0,1-.46-1.19c.2-1.79.37-3.58.56-5.49,1,0,2,0,3,0a8.37,8.37,0,0,0,1.32.05,2.08,2.08,0,0,1,2,.91c2.45,2.84,5,5.63,7.42,8.46a1.3,1.3,0,0,0,1.4.51c1.27-.26,2.55-.43,3.82-.67a1.17,1.17,0,0,1,1.19.38c.89.92,1.82,1.81,2.79,2.76l7.44-4.52,1.9,2.57a1.72,1.72,0,0,1,.24.33,1.73,1.73,0,0,0,1.8,1c3.23-.08,6.46-.09,9.69-.12a7,7,0,0,1,1,0c1.9.24,3.5-.7,5.15-1.37,5-2,10-4,14.93-6.08l.34-.06c.85.63,1.81,1.29,2.71,2a1.5,1.5,0,0,1,.45.85c.18.8.3,1.61.42,2.42a1.42,1.42,0,0,0,.6,1q7.41,5.44,14.81,10.93c.09.06.19.09.34.17.9-.74,1.81-1.51,2.76-2.22a3.47,3.47,0,0,1,1.27-.57c.92-.21,1.87-.33,2.87-.5.19,1.12.39,2.18.55,3.24.1.71.13,1.42.21,2.13.13,1.19.23,2.38.42,3.55a2.38,2.38,0,0,0,.52,1.18q9.78,11.46,19.61,22.9l5.8,6.75.88,1a4.5,4.5,0,0,1,.29-.79q2.56-4.49,5.15-9a2.2,2.2,0,0,0,.31-1.46c-.67-5.34-1-10.71-1.27-16.08a1.93,1.93,0,0,1,.31-1.45c3.86-4.94,6.69-10.53,9.82-15.92,2.32-4,4.6-8.05,6.91-12.08.11-.2.21-.42.36-.71Zm-165.58-36.6a1.23,1.23,0,0,0-1,1.22c-.09.67-.26,1.33-.4,2-.23.06-.42.14-.61.17-1.75.23-3.51.47-5.27.67a2.23,2.23,0,0,1-1.07-.19c-1-.43-2.06-.9-3.07-1.38a1.17,1.17,0,0,0-1.25,0,5.19,5.19,0,0,1-4,.5c-1.63-.33-3.3-.49-4.94-.76a4.67,4.67,0,0,0-2.4.23c-2.83,1-5.68,1.9-8.52,2.85-.25.08-.52.13-.84.21l-1.19-1.66-2.35.74a6.51,6.51,0,0,1-.21-.78,23.89,23.89,0,0,1-.38-3,7.89,7.89,0,0,1,.42-1.88,1.93,1.93,0,0,1,.55-.12c1.37.31,1.92-.73,2.56-1.59a1,1,0,0,0,.13-.75c-.56-1.88-.15-3.71.2-5.55.07-.36.14-.72.23-1.15.77.24,1.47.51,2.19.69a5,5,0,0,0,1.49.13c1.34-.1,2.67-.28,4.11-.26l-2.29,2.56,1.9.89a14.85,14.85,0,0,1,1.66.78,2.19,2.19,0,0,0,2.05.1c.81-.27,1.61-.56,2.42-.8a1.31,1.31,0,0,0,.94-.84c.29-.8.62-1.58,1-2.47l-3.58-1.12c3.68-2.59,7.1-5.23,10.94-7.66a8.86,8.86,0,0,1-.19,1.67,1.51,1.51,0,0,1-.68.81,1.81,1.81,0,0,0-1.14,2.12,5.65,5.65,0,0,1,0,.92,8.27,8.27,0,0,1-.87,4.53,2.85,2.85,0,0,0-.16.58c.36,0,.66,0,.95,0,2.07-.12,4.15-.26,6.21-.36a1.16,1.16,0,0,1,.81.28c2.25,2.32,4.47,4.67,6.7,7,0,0,0,.06,0,.19A5.19,5.19,0,0,1,362.07,181.92Zm32.64.6c.08.5.17,1,.27,1.61l2.39.06c.22,1.31.49,2.54.61,3.79a3.79,3.79,0,0,0,.94,2.4c.69.74,1.3,1.57,1.94,2.36.17.21.31.43.53.74a7.27,7.27,0,0,1-.83.23c-3.66.63-7.32,1.24-11,1.89a1.31,1.31,0,0,1-1.43-.5c-.27-.34-.65-.6-.92-.95a6.32,6.32,0,0,0-3.94-2.34c-.42-.08-.83-.25-1.37-.41,1.88-3,3.91-5.72,4.88-9.11-.17-.16-.37-.34-.57-.5a15.17,15.17,0,0,0-1.42-1c-2.63-1.47-4.22-3.9-5.9-6.26a2.69,2.69,0,0,1-.46-1.51c-.09-1.4-.27-2.78-.44-4.17-.07-.57-.19-1.14-.3-1.79a18.07,18.07,0,0,1,1.77-.66,2.54,2.54,0,0,0,1.32-.89c1.23-1.42,2.47-2.82,3.7-4.24a1.71,1.71,0,0,1,1.18-.61,26.93,26.93,0,0,0,3.16-.77l1.62-.46,3.71,6.34c-.48.09-.83.17-1.17.2-1.06.11-2.1.22-3.16.29a.89.89,0,0,0-.91.79,1.09,1.09,0,0,0-.07.3,8.25,8.25,0,0,1-1.11,3.77,3.8,3.8,0,0,0-.19.55,11.43,11.43,0,0,0,1.34,1.07,2.46,2.46,0,0,1,1.17,1.91c.12.76.37,1.49.58,2.32l5.45-1.26,3.74,3.95ZM415.54,162a1.42,1.42,0,0,0-.59,1.59c.17.76.21,1.53.33,2.46h-6.53c-.16-.93-.32-1.79-.45-2.66s-.23-1.75-.35-2.62a1.4,1.4,0,0,1,.31-1.13c.62-.76,1.18-1.57,1.78-2.36a.79.79,0,0,1,.37-.31c1.38-.36,2.76-.69,4.21-1.05.79,1.61,1.55,3.15,2.33,4.77C416.47,161.17,416,161.64,415.54,162Z" transform="translate(-197.98 -76.04)" style="fill:#b0e159;fill-rule:evenodd"/><path d="M424.39,406c0-5-.08-9.95-.09-14.93a5.15,5.15,0,0,1,.34-1.77c.63-1.81,1.3-3.59,2-5.37a1.23,1.23,0,0,0-.2-1.39q-2.42-3-4.78-6.13a1.33,1.33,0,0,0-1-.56c-.95-.1-1.89-.24-2.84-.35l-2.17-.22c.12,1.54.19,2.89.33,4.24a3,3,0,0,1-.34,1.86c-1.29,2.29-2.53,4.6-3.77,6.92a2.75,2.75,0,0,1-1.29,1.23c-2.19,1.09-4.36,2.23-6.56,3.32a1.4,1.4,0,0,0-.82,1.07c-.26,1.37-.55,2.74-.89,4.09a1.66,1.66,0,0,0,.38,1.59c1.76,2.25,3.49,4.53,5.23,6.8.16.21.31.43.49.69l-4.54,4.55a77.6,77.6,0,0,0,6.05,12.38,1.49,1.49,0,0,0,1.34.88c1.73.1,3.45.25,5.18.4a1.07,1.07,0,0,0,1.09-.56c.85-1.24,1.76-2.43,2.59-3.68a5.89,5.89,0,0,0,.78-1.64q1.65-5.64,3.22-11.31A7.84,7.84,0,0,0,424.39,406Z" transform="translate(-197.98 -76.04)" style="fill:#b0e159;fill-rule:evenodd"/><path d="M596.21,260.18a6.43,6.43,0,0,1-.46,1.55q-1.41,3.12-2.9,6.2a1.34,1.34,0,0,0,.09,1.51c1.19,1.86,2.31,3.77,3.53,5.61a9.41,9.41,0,0,1,1.74,4.49c.11,1.19.38,2.36.59,3.53.05.29.13.59.2.91,1,0,2,.16,3,.24a212.91,212.91,0,0,0-3-35.07c-.1-.63-.23-1.26-.34-1.89a83.83,83.83,0,0,0-1.76,8.59C596.7,257.3,596.46,258.74,596.21,260.18Z" transform="translate(-197.98 -76.04)" style="fill:#b0e159;fill-rule:evenodd"/><path d="M519.48,289.09c.25-.16.4-.24.53-.34,1.94-1.65,3.87-3.32,5.83-4.95a1.48,1.48,0,0,0,.58-1.68c-.54-2.22-1-4.45-1.56-6.66a2.12,2.12,0,0,0-.65-1c-1.42-1.33-2.86-2.63-4.3-3.94-.24-.22-.5-.43-.75-.64-.14.1-.25.14-.3.22-1,1.57-2.06,3.13-3.06,4.71a1.16,1.16,0,0,0-.08.76c.28,1.13.57,2.24.88,3.36q1,3.48,2,7C518.87,286.94,519.17,288,519.48,289.09Z" transform="translate(-197.98 -76.04)" style="fill:#b0e159;fill-rule:evenodd"/><path d="M266.08,148.61a3.8,3.8,0,0,1-1.91,2.16,2.41,2.41,0,0,0-1.34,1.69,2.21,2.21,0,0,1-1.24,1.63,1.72,1.72,0,0,0-1.13,2.25c.15.53-.06,1.15.33,1.68,1,0,1.9-.08,2.85-.1a4.92,4.92,0,0,0,3.24-1c.66-.54,1.41-.94,2.11-1.42a2.08,2.08,0,0,0,.66-.62c.34-.7.63-1.43.91-2.16a1,1,0,0,0,0-.59c-.36-1.38-.74-2.75-1.14-4.2l-1.91-.16A1.18,1.18,0,0,0,266.08,148.61Z" transform="translate(-197.98 -76.04)" style="fill:#b0e159;fill-rule:evenodd"/><path d="M592.56,288.88a3.91,3.91,0,0,1-.79-1.16c-1.06-2.54-2.12-5.1-3.14-7.66a3,3,0,0,0-1-1.35c-1.5-1.12-3-2.24-4.49-3.4a44.7,44.7,0,0,1-5.62-4.57c-1.32-1.43-2.71-2.79-4.06-4.18L571.86,265l-.25.07c0,.33,0,.67,0,1,.17,1.21.38,2.42.55,3.64a6.47,6.47,0,0,0,.89,2.57c2.72,4.56,5.3,9.2,8.1,13.7,3.47,5.58,7.1,11.06,10.66,16.57a5.26,5.26,0,0,0,.46.53,1.64,1.64,0,0,0,.18-.34c1.1-3.3,2.18-6.61,3.29-9.9a1,1,0,0,0-.35-1.16C594.46,290.74,593.5,289.83,592.56,288.88Z" transform="translate(-197.98 -76.04)" style="fill:#b0e159;fill-rule:evenodd"/><path d="M601.72,290.53C606,176.3,519.09,80.34,407.64,76.18c-6.62-.25-13.18-.15-19.66.24,83.74,13.25,146.22,104,142.21,211.44S457.12,481.14,372.62,488.11q9.66,1.32,19.59,1.71C503.66,494,597.46,404.75,601.72,290.53Z" transform="translate(-197.98 -76.04)" style="fill-rule:evenodd;opacity:0.2;mix-blend-mode:overlay"/></g></g></svg>